<?xml version="1.0" encoding="UTF-8"?>
<svg version="1.1" xmlns="http://www.w3.org/2000/svg" width="1600" height="1200">
<path d="M0 0 C528 0 1056 0 1600 0 C1600 396 1600 792 1600 1200 C1072 1200 544 1200 0 1200 C0 804 0 408 0 0 Z " fill="#8BC4EE" transform="translate(0,0)"/>
<path d="M0 0 C1.75698504 -0.0041799 3.51396738 -0.00966099 5.27094477 -0.01631981 C10.06780833 -0.03070717 14.86449908 -0.02655077 19.66137183 -0.019153 C24.8469264 -0.01440692 30.03244437 -0.02694391 35.21798706 -0.03717041 C45.36501154 -0.05433584 55.51197403 -0.05520306 65.65900926 -0.04995751 C73.90990341 -0.04591021 82.1607793 -0.04736601 90.41167259 -0.05270576 C91.58759555 -0.05345419 92.7635185 -0.05420261 93.97507548 -0.05497371 C96.36424584 -0.05650525 98.7534162 -0.05804359 101.14258655 -0.05958868 C123.53040591 -0.07330567 145.91819029 -0.06788175 168.30600884 -0.05640347 C188.76743088 -0.04647295 209.22876247 -0.05941008 229.69017056 -0.08333766 C250.72245959 -0.10774667 271.75470652 -0.11733203 292.78700942 -0.11068493 C304.58601778 -0.10719659 316.38495661 -0.1093993 328.18395424 -0.12693596 C338.22858657 -0.14168049 348.2731004 -0.14226397 358.31773046 -0.12486505 C363.43772589 -0.11637109 368.55750982 -0.11416623 373.67749405 -0.1295166 C378.37370711 -0.14342157 383.06952863 -0.13852634 387.76571938 -0.11927737 C389.45537437 -0.11553478 391.14506117 -0.11838848 392.83468769 -0.12888902 C417.4954023 -0.27112677 439.84039802 7.90002423 458.37174988 24.38768005 C459.14389832 25.06443787 459.91604675 25.74119568 460.71159363 26.4384613 C480.35168984 44.76691664 486.0525581 69.0707823 489.36784363 94.7040863 C489.64484223 96.80417598 489.92244754 98.9041857 490.20062256 101.00411987 C490.78254427 105.40880672 491.35953244 109.81410033 491.93254089 114.21995544 C492.65304136 119.75954268 493.38193953 125.29797847 494.11412621 130.83603191 C496.90589564 151.95968835 499.62807411 173.08744025 502.07058716 194.25450134 C503.3711438 205.50566992 504.8325488 216.72948901 506.37174988 227.95018005 C508.01958571 239.98777966 509.58357889 252.0312777 511.02667236 264.09525871 C512.46400882 276.1109172 513.96821968 288.11425864 515.59049988 300.10643005 C515.68389648 300.79708494 515.77729309 301.48773983 515.8735199 302.19932365 C516.53647905 307.09586803 517.20362388 311.99183839 517.87174988 316.88768005 C518.63506471 322.48103901 519.39647638 328.07464806 520.15299988 333.66893005 C520.24582497 334.35506126 520.33865005 335.04119247 520.43428802 335.74811554 C522.06943743 347.86520206 523.5629112 359.99719275 525.0153656 372.13737488 C526.28449396 382.74004656 527.67199969 393.3193242 529.14518738 403.89549255 C529.30760925 405.08400818 529.47003113 406.2725238 529.63737488 407.49705505 C529.77949402 408.51767029 529.92161316 409.53828552 530.06803894 410.58982849 C530.35345833 413.21917431 530.39331331 415.74633303 530.37174988 418.38768005 C529.64067394 418.38730303 528.90959801 418.386926 528.15636826 418.38653755 C510.32666509 418.37940499 492.497289 418.40545732 474.66769028 418.46795845 C466.0452164 418.49739298 457.42298794 418.51580044 448.80046082 418.50779724 C441.28066852 418.50084604 433.76125641 418.51504469 426.24155736 418.55411613 C422.26375815 418.5740596 418.28655503 418.58376771 414.30872345 418.56810379 C410.55567315 418.55366034 406.80375547 418.56774149 403.05084991 418.60263252 C401.03498953 418.61425692 399.0190249 418.59659885 397.0032196 418.57769775 C387.44861799 418.70732537 379.38493092 420.87757061 372.13817978 427.39711189 C365.02727041 434.90711051 362.26845397 442.76573233 362.30250549 452.9283905 C362.40937475 456.72396825 362.86290734 460.44644425 363.36003113 464.20799255 C363.462854 465.02062057 363.56567688 465.8332486 363.6716156 466.67050171 C364.00380399 469.285278 364.34389606 471.89895528 364.68424988 474.51268005 C364.91706011 476.33220009 365.14939767 478.15178067 365.38127136 479.97142029 C365.94140246 484.35625071 366.50779897 488.74023646 367.07756042 493.12382507 C367.46375435 496.09567546 367.84725189 499.06787285 368.23112488 502.0400238 C368.69030578 505.58227646 369.15441866 509.12383793 369.62174988 512.6650238 C370.21600934 517.17666127 370.7956591 521.69009973 371.37174988 526.2040863 C371.54937532 527.59268032 371.72702844 528.9812708 371.90470886 530.36985779 C372.24699412 533.04495051 372.58738972 535.72026023 372.92668152 538.39573669 C373.8218243 545.38531368 374.81010386 552.34000766 376.00236511 559.28562927 C376.44738951 563.02289301 376.3945801 566.62381725 376.37174988 570.38768005 C332.82055372 570.4793224 289.26936781 570.54976283 245.71809417 570.59194137 C240.57139592 570.59694394 235.42469785 570.60212125 230.27799988 570.60740662 C229.25342536 570.60845586 228.22885085 570.6095051 227.17322862 570.61058614 C210.60383424 570.62797075 194.03449562 570.65949771 177.46513426 570.69629124 C160.45159378 570.73375479 143.43808241 570.75592734 126.42450237 570.76403403 C115.93412675 570.76951058 105.44390877 570.78678057 94.95358169 570.81934592 C87.75082503 570.84056071 80.54814934 570.8468644 73.34536374 570.84168556 C69.19552756 570.83913458 65.045966 570.84292429 60.8961792 570.86450195 C57.0857935 570.88416858 53.27586342 570.88482207 49.46545541 570.87127563 C47.45714291 570.86882241 45.44883463 570.88589321 43.4406023 570.90400529 C31.16467421 570.82452858 18.79741576 568.45720488 7.93424988 562.51268005 C7.27086609 562.16390808 6.6074823 561.81513611 5.92399597 561.45579529 C-15.28142066 550.13637193 -30.97174774 532.49505085 -38.25666809 509.39500427 C-39.39478567 505.10986186 -40.02162506 500.7737102 -40.62825012 496.38768005 C-40.87893177 494.81815121 -41.13302678 493.24916493 -41.38996887 491.6806488 C-42.85818168 482.54341451 -44.04453799 473.39749132 -44.89411926 464.18162537 C-45.28058151 460.12810635 -45.82265473 456.14815173 -46.53059387 452.13768005 C-48.26849142 442.0134444 -49.27906345 431.77984363 -50.45100403 421.57810974 C-51.50467123 412.43566811 -52.56079019 403.33130972 -54.15901184 394.26512146 C-55.02922563 388.92883649 -55.59668868 383.55406557 -56.20246887 378.18241882 C-56.62345112 374.4594649 -57.05721821 370.73800532 -57.49153137 367.0165863 C-57.58262177 366.23595825 -57.67371216 365.4553302 -57.76756287 364.65104675 C-58.82984406 355.59761086 -59.96941203 346.55420537 -61.12825012 337.51268005 C-61.234487 336.68316833 -61.34072388 335.85365662 -61.45018005 334.99900818 C-62.75456922 324.84389268 -64.13677922 314.70475327 -65.62825012 304.57518005 C-67.48653862 291.95430404 -68.97281189 279.29805888 -70.44999695 266.62800598 C-71.85455201 254.59963979 -73.39322233 242.61293253 -75.17463684 230.6337738 C-76.7619098 219.81775748 -78.01667647 208.96733557 -79.23396301 198.10447693 C-80.03043965 191.0582821 -80.96980702 184.07301002 -82.18635559 177.08641052 C-82.84618981 173.05668264 -83.24952452 169.01446689 -83.62825012 164.95018005 C-84.10492507 159.8612336 -84.69429595 154.8195191 -85.49543762 149.77049255 C-86.95359468 140.50010349 -88.15251089 131.19601148 -89.34260559 121.88792419 C-89.61529337 119.77110827 -89.89260164 117.65488218 -90.17463684 115.53929138 C-91.55461193 105.17820654 -92.87942202 94.88185699 -92.90950012 84.4150238 C-92.91224945 83.72338638 -92.91499878 83.03174896 -92.91783142 82.31915283 C-92.57702827 59.52458498 -81.02452149 39.02185688 -65.13191223 23.35447693 C-46.94395304 6.15312301 -24.63679044 -0.09609744 0 0 Z " fill="#8BC4EF" transform="translate(576.6282501220703,281.61231994628906)"/>
<path d="M0 0 C1.07186801 -0.00352835 1.07186801 -0.00352835 2.16538993 -0.00712797 C4.55425949 -0.01377251 6.9430741 -0.01336113 9.3319521 -0.01294994 C11.06440622 -0.01625142 12.79685957 -0.01997759 14.52931195 -0.02409142 C19.28634954 -0.03408758 24.04337452 -0.03782438 28.80042112 -0.04048073 C33.93297666 -0.04439097 39.06552229 -0.05396892 44.19807148 -0.0626936 C56.59283734 -0.08243952 68.98760399 -0.09252265 81.38238165 -0.10142139 C87.22498103 -0.10580807 93.06757951 -0.11117396 98.91017818 -0.11641026 C118.34297688 -0.133422 137.77577502 -0.14791439 157.20858002 -0.155159 C162.24948534 -0.15706877 167.29039066 -0.15898912 172.33129597 -0.16094494 C174.21054804 -0.16167055 174.21054804 -0.16167055 176.1277648 -0.16241082 C196.40579679 -0.17070444 216.68376966 -0.19603033 236.96177586 -0.22852562 C257.79952389 -0.26164448 278.63724194 -0.27961219 299.47501642 -0.28280324 C311.16694067 -0.28496405 322.85877876 -0.29364967 334.5506773 -0.31926441 C344.51188612 -0.34103755 354.47298785 -0.34898947 364.43421777 -0.33929763 C369.51012078 -0.33477182 374.58580312 -0.3365383 379.66167545 -0.35605907 C384.32254933 -0.37382774 388.98304381 -0.37258344 393.64392249 -0.35716178 C395.31633726 -0.35480628 396.98877929 -0.35900021 398.66115274 -0.37099043 C427.75960271 -0.5664313 455.89501487 8.28214663 477.60400105 28.13422108 C478.44318073 28.89218983 479.28236042 29.65015858 480.1469698 30.43109608 C501.55691959 50.74565309 509.90621703 76.59229842 513.66650105 105.13422108 C513.92298309 107.00754621 514.1803228 108.8807541 514.4384737 110.75384998 C516.05685911 122.59235072 517.53479123 134.44644529 518.92455769 146.31390858 C520.56916568 160.27241938 522.4612303 174.19780853 524.33414173 188.12717915 C528.88184518 221.9501048 528.88184518 221.9501048 530.60400105 236.63422108 C532.5443156 253.16023355 534.79227493 269.64431582 537.00823689 286.13522816 C539.46219941 304.41080605 541.83137857 322.69389849 544.0896883 340.99463367 C545.9053669 355.69889687 547.81553649 370.38815406 549.79150105 385.07172108 C551.40982446 397.10681226 553.02337821 409.14062208 554.47900105 421.19672108 C554.59912556 422.18341785 554.71925007 423.17011463 554.84301472 424.18671131 C554.99927326 425.50844349 554.99927326 425.50844349 555.15868855 426.85687733 C555.28993122 427.96688099 555.28993122 427.96688099 555.42382526 429.09930897 C555.60132519 431.1039999 555.60400105 433.12168736 555.60400105 435.13422108 C556.55130085 435.11327381 557.49860065 435.09232655 558.47460651 435.07074451 C562.0344412 435.00202687 565.59355757 434.95216113 569.15380573 434.91449451 C570.68614639 434.89454384 572.21841256 434.86737292 573.75048542 434.83246326 C584.77499702 434.58779395 594.70852743 434.93925153 603.35400105 442.69672108 C609.8452685 448.93523121 613.51750892 455.64095553 614.6391573 464.59906483 C614.79908161 465.82754139 614.95900593 467.05601795 615.12377644 468.32172108 C615.28225056 469.57984608 615.44072468 470.83797108 615.60400105 472.13422108 C615.93431107 474.52917124 616.26761628 476.92371034 616.60400105 479.31781483 C616.93768705 481.73573493 617.27101965 484.15370384 617.60400105 486.57172108 C617.76900105 487.76603748 617.93400105 488.96035389 618.10400105 490.1908617 C618.60682071 493.83826839 619.10626731 497.48611701 619.60400105 501.13422108 C619.76972614 502.34545643 619.93545124 503.55669178 620.10619831 504.80463123 C621.35965097 514.06981175 622.47050476 523.34671639 623.54150105 532.63422108 C624.60133513 541.8052818 625.69033719 550.96604411 626.95580769 560.111516 C628.97333815 574.79334868 630.44544782 586.3261908 622.13525105 599.45453358 C616.75365165 606.39257593 608.26288544 610.87962334 599.60400105 612.13422108 C596.3201027 612.2221975 593.04300756 612.14392435 589.75927448 612.06976795 C587.71190482 612.03368824 585.66452022 611.99844949 583.6171236 611.96393299 C582.53388561 611.94466251 581.45064762 611.92539204 580.33458424 611.90553761 C573.35503416 611.79670697 566.37462892 611.76668793 559.3944025 611.72669697 C553.27648051 611.68728008 547.16195948 611.61740095 541.0454073 611.47943592 C535.1122886 611.34719016 529.18367467 611.29990933 523.24915028 611.30806446 C521.00205882 611.29647356 518.75489533 611.25523008 516.50896168 611.18217945 C502.57766492 610.68484346 502.57766492 610.68484346 490.53185749 616.86737537 C486.81365084 620.39133276 483.51811023 624.19296032 480.29114246 628.16547108 C467.04630237 643.62106873 443.22731291 652.32896953 423.60400105 655.13422108 C421.10528034 655.22561928 418.6044162 655.26503604 416.10402679 655.26844215 C415.36606594 655.27079438 414.62810509 655.27314661 413.86778179 655.27557012 C411.39338063 655.28223047 408.91903234 655.2818028 406.44462299 655.2813921 C404.65314667 655.28469258 402.86167109 655.28841854 401.07019645 655.29253358 C396.14548568 655.30254092 391.22078709 655.30626834 386.2960676 655.30892289 C380.98495459 655.31282976 375.67385119 655.32240791 370.36274433 655.33113575 C357.53449909 655.35089055 344.70625307 655.36096566 331.87799641 655.36986354 C325.83377625 655.37424853 319.78955696 655.37961484 313.74533749 655.38485241 C293.64689249 655.40186459 273.54844804 655.41635773 253.44999695 655.42360115 C248.23529974 655.42551098 243.02060253 655.42743132 237.80590534 655.42938709 C236.50984959 655.42987083 235.21379383 655.43035457 233.87846366 655.43085297 C212.89349099 655.43914938 191.9085754 655.46447979 170.92362764 655.49696777 C149.36836791 655.53006597 127.81313716 655.54805246 106.2578519 655.55124539 C94.15967953 655.55340805 82.06159037 655.56212091 69.9634428 655.58770657 C59.65773961 655.60945135 49.35213984 655.61744543 39.04641631 655.60773978 C33.79267139 655.60320591 28.53913968 655.60502813 23.28542423 655.62450123 C18.4655349 655.64221119 13.64601307 655.64107204 8.8261194 655.62560394 C7.09249046 655.62323969 5.35883554 655.62748919 3.62524613 655.63943259 C-12.26984781 655.74206112 -26.99690899 653.24240128 -41.39599895 646.13422108 C-41.99734661 645.83950916 -42.59869427 645.54479725 -43.21826458 645.24115467 C-68.18318177 632.77751385 -87.13703471 611.19174077 -96.09131145 584.66937733 C-101.50919677 566.96492336 -102.50569229 547.70720587 -104.65503216 529.36980152 C-105.47433267 522.40940116 -106.36522847 515.45887503 -107.27099895 508.50922108 C-107.60185048 505.96496615 -107.93257392 503.42069457 -108.26318645 500.87640858 C-108.35017803 500.20732975 -108.43716961 499.53825092 -108.52679729 498.84889698 C-109.70066211 489.8074362 -110.85014853 480.76285013 -112.00277996 471.71866322 C-112.77897684 465.63011101 -113.55683799 459.54177116 -114.33436871 453.45338917 C-114.97090782 448.46791479 -115.60619557 443.48228545 -116.23953533 438.49640369 C-118.12841722 423.63850003 -120.13198608 408.80089789 -122.21802044 393.96973133 C-124.02970493 381.05992706 -125.64694374 368.13362777 -127.18942547 355.18927479 C-127.26919628 354.5201305 -127.34896709 353.85098621 -127.4311552 353.16156483 C-127.51052319 352.4956432 -127.58989117 351.82972157 -127.67166424 351.14362049 C-129.86571872 332.80367527 -132.32995819 314.49914013 -134.89380169 296.20770741 C-136.29148963 286.12942549 -137.51425565 276.03428343 -138.71237469 265.93085194 C-139.67208356 257.8529629 -140.68838201 249.79491144 -141.95849895 241.75922108 C-143.29687619 233.28223985 -144.23418099 224.78299586 -145.1240263 216.24823475 C-145.83989227 209.57901247 -146.69026977 202.94820175 -147.6967802 196.31781483 C-153.09110453 160.60215019 -155.09799319 125.93436596 -133.20068645 95.03656483 C-124.04433821 83.63215259 -113.6135684 73.18517782 -103.2983427 62.83343983 C-102.47165679 62.00251285 -102.47165679 62.00251285 -101.62827015 61.15479946 C-98.72105682 58.2327729 -95.81112174 55.31349178 -92.8986845 52.39667225 C-89.92125208 49.41372777 -86.95324483 46.42158333 -83.98725319 43.42726898 C-81.67327826 41.09455544 -79.35251033 38.76868857 -77.02991199 36.44456387 C-75.93315711 35.34481603 -74.83886188 34.24260868 -73.74726963 33.13773632 C-67.41273204 26.7315464 -61.03317045 20.9942393 -53.39599895 16.13422108 C-52.54960354 15.58767368 -51.70320812 15.04112629 -50.83116436 14.47801685 C-35.86392997 4.9618971 -17.71635295 0.02498111 0 0 Z M-66.39599895 50.13422108 C-82.79527767 70.8115725 -86.31152863 95.25229466 -83.36033916 120.8498888 C-82.59948263 127.27377352 -81.76591305 133.68810737 -80.92187786 140.10150623 C-80.43757227 143.79089465 -79.98033506 147.48315194 -79.5327177 151.17718983 C-78.47132428 159.93302059 -77.38436281 168.65635622 -75.85693645 177.34515858 C-74.49391264 185.59260775 -73.64070562 193.93043686 -72.70849895 202.23578358 C-71.07691863 216.8066507 -71.07691863 216.8066507 -69.02099895 231.32172108 C-67.49038442 241.11144889 -66.21684791 250.93152995 -64.95849895 260.75922108 C-64.85106365 261.5978368 -64.74362835 262.43645252 -64.63293743 263.30048084 C-63.47487456 272.36626044 -62.34721175 281.43493886 -61.2905302 290.51312733 C-61.20326168 291.26237476 -61.11599316 292.0116222 -61.02608013 292.7835741 C-60.62045313 296.27756757 -60.22042961 299.77202506 -59.82788372 303.26752186 C-58.91088312 311.29089521 -57.79629075 319.26016176 -56.57380962 327.24164295 C-55.02812647 337.41253001 -53.74591442 347.61551266 -52.45849895 357.82172108 C-52.19436948 359.90091826 -51.93012631 361.980101 -51.66577435 364.05926991 C-50.01065918 377.10816972 -48.42231164 390.16389573 -46.86938763 403.22528553 C-45.53723798 414.28358235 -44.00338241 425.30943328 -42.44122601 436.33719349 C-41.12152056 445.66350143 -39.90061142 454.98239223 -38.99316692 464.35931873 C-38.50387961 469.3618394 -37.7699426 474.27680226 -36.8920927 479.22406483 C-35.55693353 487.05629781 -34.65417485 494.9654106 -33.70849895 502.85297108 C-33.58466839 503.85868153 -33.46083782 504.86439198 -33.33325481 505.9005785 C-33.08985298 507.87903108 -32.85329126 509.85834156 -32.62475872 511.83856678 C-31.44063353 521.36693218 -28.81053629 529.96601394 -24.70849895 538.63422108 C-24.36182171 539.36761707 -24.01514446 540.10101307 -23.65796185 540.85663319 C-20.65443754 546.99309149 -16.97470096 552.06128037 -12.39599895 557.13422108 C-11.85588177 557.81484608 -11.31576458 558.49547108 -10.7592802 559.19672108 C1.46112356 574.34647102 21.56930837 584.37179854 40.60400105 587.13422108 C42.63949941 587.21989099 44.67736324 587.25801082 46.71466351 587.25726891 C47.92489787 587.25925995 49.13513224 587.261251 50.38204038 587.26330239 C51.71639327 587.26044975 53.05074596 587.25750416 54.38509846 587.25447559 C55.80920831 587.25491183 57.23331808 587.25578769 58.65742743 587.25706476 C62.56602301 587.2592995 66.47459116 587.25530238 70.38318324 587.2502867 C74.59988608 587.24596775 78.81658738 587.24742965 83.03329182 587.24818897 C90.33745789 587.24871329 97.64161502 587.2455761 104.94577885 587.23995113 C115.50637028 587.23182368 126.0669574 587.22921963 136.62755163 587.22796314 C153.76146821 587.22577459 170.89538002 587.21911981 188.02929401 587.20966053 C204.67317398 587.20048134 221.31705265 587.19340298 237.96093464 587.18915272 C238.98688478 587.18888999 240.01283491 587.18862727 241.06987445 587.18835659 C246.21677115 587.18705155 251.36366785 587.18578784 256.51056457 587.18454468 C299.20838002 587.17417818 341.90619029 587.15656519 384.60400105 587.13422108 C384.61536091 585.24679188 384.61536091 585.24679188 384.62695026 583.3212328 C384.63121021 582.61344685 384.63547016 581.9056609 384.6398592 581.17642689 C384.59249111 578.4787031 384.19674716 575.9145798 383.72900105 573.25922108 C382.72979228 567.19360169 382.00877019 561.13120113 381.38964558 555.01752186 C380.94434016 550.76032412 380.36798708 546.54511523 379.6938448 542.31781483 C378.2799541 533.30736803 377.24596716 524.25193964 376.16650105 515.19672108 C373.98274804 496.90605361 373.98274804 496.90605361 371.41674519 478.66571522 C369.66265875 466.6216757 370.71509122 457.35583699 377.86962605 447.20843983 C382.84387055 441.25951228 389.72434195 436.61207071 397.54154491 435.84655666 C401.23489757 435.72487448 404.92268156 435.69709786 408.61742878 435.70184803 C410.0371711 435.69282213 411.45690563 435.68249288 412.87662983 435.67096424 C416.71495667 435.64346512 420.55313536 435.63411943 424.39154792 435.62811017 C428.40880049 435.61870797 432.4259432 435.59250312 436.44312763 435.56810474 C444.04313923 435.52448674 451.64312946 435.49591096 459.24322802 435.47278136 C467.89866994 435.44570445 476.55400109 435.4017945 485.20936382 435.35649264 C503.00751769 435.2637137 520.80570087 435.1920021 538.60400105 435.13422108 C538.45122747 433.07110503 538.29674522 431.00811546 538.14155293 428.94517994 C538.05571099 427.79633918 537.96986906 426.64749842 537.88142586 425.4638443 C537.51742654 421.09516301 536.95909735 416.77277074 536.3344698 412.43500233 C536.08518497 410.64976711 535.83591811 408.86452937 535.58666706 407.07928944 C535.39223515 405.70303898 535.39223515 405.70303898 535.19387531 404.29898548 C533.18712064 390.07393336 531.2757494 375.8472541 529.66650105 361.57172108 C528.04714474 347.22585393 526.09522217 332.93280042 524.10400105 318.63422108 C522.15974593 304.66792104 520.24590463 290.70944091 518.66650105 276.69672108 C516.59301081 258.30733778 514.0830598 239.9756688 511.59643269 221.63837147 C509.86540598 208.83698848 508.20228613 196.03034141 506.6625948 183.20453358 C504.71308908 166.97128901 502.71363098 150.74506333 500.62349606 134.52926064 C500.08549135 130.35355618 499.55331787 126.17727619 499.03393269 121.99921131 C498.51698634 117.84212919 497.98556795 113.6871211 497.44445324 109.53311825 C497.24538728 107.98676438 497.0511197 106.43978294 496.86234951 104.89213848 C493.51758005 77.56671241 482.64651871 53.22920248 460.6079073 35.75922108 C452.73933603 30.057637 444.51574142 25.92801621 435.60400105 22.13422108 C434.45593265 21.64511819 434.45593265 21.64511819 433.28467095 21.14613444 C422.02183445 16.89457974 410.70009454 16.70025409 398.85549641 16.74654102 C397.09764831 16.74236011 395.33980292 16.73687847 393.58196247 16.73022121 C388.78735816 16.71584729 383.99292693 16.71998597 379.19831347 16.72738802 C374.01345818 16.73213743 368.82863938 16.71959424 363.64379597 16.70937061 C353.50025069 16.69221207 343.35676745 16.69133647 333.21321143 16.69658352 C324.9652016 16.70063185 316.71721005 16.69917378 308.46920109 16.69383526 C307.29341362 16.69308684 306.11762616 16.69233841 304.90620878 16.69156731 C302.51727995 16.69003577 300.12835113 16.68849742 297.73942231 16.68695235 C275.35827503 16.67323802 252.97716275 16.67865755 230.59601627 16.69013756 C210.14112433 16.70006933 189.68632285 16.68712829 169.23144485 16.66320337 C148.20364422 16.63879453 127.17588568 16.62920886 106.14807117 16.63585609 C94.35243115 16.63934427 82.55686069 16.63714271 70.76123142 16.61960506 C60.7202831 16.60486081 50.67945332 16.60427677 40.63850726 16.62167598 C35.52053012 16.63016987 30.40276456 16.63237491 25.28479862 16.61702442 C20.59047583 16.60311943 15.89654473 16.6080147 11.20224427 16.62726366 C9.5132921 16.63100621 7.82430812 16.62815264 6.13538446 16.61765201 C-22.87958536 16.45022839 -47.48025139 28.05404134 -66.39599895 50.13422108 Z " fill="#1E82BF" transform="translate(568.395998954773,264.86577892303467)"/>
<path d="M0 0 C3.18154827 2.33620936 5.78416549 4.85405415 8.42578125 7.78125 C20.10234063 4.8340415 31.507055 -0.17681204 41.82421875 -6.37109375 C43.42578125 -7.21875 43.42578125 -7.21875 45.42578125 -7.21875 C43.84595626 5.09298954 38.40891878 15.23865013 29.42578125 23.78125 C28.43578125 24.44125 27.44578125 25.10125 26.42578125 25.78125 C37.06132035 24.77049664 46.43029026 22.49588637 56.42578125 18.78125 C53.09675316 30.01050891 43.31370257 43.68048289 33.25415039 50.18554688 C31.23537072 51.58011569 31.23537072 51.58011569 31.24291992 53.60913086 C31.44751831 54.69786499 31.44751831 54.69786499 31.65625 55.80859375 C35.62564816 83.68516759 33.59862432 115.46454728 23.42578125 141.78125 C22.95978516 142.99458008 22.95978516 142.99458008 22.484375 144.23242188 C10.59377997 174.63708028 -9.09681863 200.77525253 -36.57421875 218.78125 C-37.23115723 219.21276367 -37.8880957 219.64427734 -38.56494141 220.08886719 C-76.13453362 244.33956425 -122.08847132 251.19322595 -165.56445312 242.20849609 C-185.92048988 237.77454276 -207.36012093 230.86774422 -224.57421875 218.78125 C-224.57421875 218.45125 -224.57421875 218.12125 -224.57421875 217.78125 C-223.92686768 217.7719043 -223.2795166 217.76255859 -222.61254883 217.75292969 C-193.45686425 217.22848214 -163.40900072 213.32013138 -141.38671875 192.3203125 C-139.57421875 190.78125 -139.57421875 190.78125 -137.57421875 190.78125 C-137.57421875 190.12125 -137.57421875 189.46125 -137.57421875 188.78125 C-138.72921875 188.884375 -139.88421875 188.9875 -141.07421875 189.09375 C-159.081132 189.03712449 -176.39589666 177.67235312 -188.7890625 165.62890625 C-193.52753145 160.5993989 -201.57421875 151.9779181 -201.57421875 144.78125 C-192.66421875 144.78125 -183.75421875 144.78125 -174.57421875 144.78125 C-174.57421875 144.12125 -174.57421875 143.46125 -174.57421875 142.78125 C-176.06501953 142.64396484 -176.06501953 142.64396484 -177.5859375 142.50390625 C-181.94263888 141.87432513 -185.49839278 140.21988652 -189.38671875 138.21875 C-190.08812988 137.86087402 -190.78954102 137.50299805 -191.51220703 137.13427734 C-197.47388475 134.00038136 -202.61454497 130.35358084 -207.57421875 125.78125 C-208.42628906 125.00910156 -209.27835938 124.23695313 -210.15625 123.44140625 C-222.95396857 111.29604515 -230.35599226 96.02981476 -233.57421875 78.78125 C-231.60546875 79.4375 -231.60546875 79.4375 -229.63671875 80.09375 C-228.81300781 80.36574219 -227.98929688 80.63773438 -227.140625 80.91796875 C-225.51694489 81.46413816 -223.8987613 82.02718579 -222.2890625 82.61328125 C-217.0136804 84.5019983 -212.16418271 85.33760207 -206.57421875 85.78125 C-207.20328125 85.31976562 -207.83234375 84.85828125 -208.48046875 84.3828125 C-223.33769511 73.06089 -234.38549544 55.38395601 -237.57421875 36.78125 C-237.88309703 32.29926743 -237.89898327 27.83501803 -237.88671875 23.34375 C-237.90283203 22.16748047 -237.91894531 20.99121094 -237.93554688 19.77929688 C-237.93946102 12.77689679 -237.20873011 7.28063818 -234.57421875 0.78125 C-230.39262718 2.6857428 -227.65069298 5.56585432 -224.51171875 8.84375 C-209.10912353 24.52831 -191.04479381 36.71510773 -171.57421875 46.78125 C-170.95933594 47.10432129 -170.34445312 47.42739258 -169.7109375 47.76025391 C-150.09504008 57.9542139 -128.12141303 63.92755623 -106.32421875 66.96875 C-105.09058594 67.14599609 -103.85695313 67.32324219 -102.5859375 67.50585938 C-99.58277636 67.93654527 -96.57893513 68.36157717 -93.57421875 68.78125 C-93.88166016 67.36972656 -93.88166016 67.36972656 -94.1953125 65.9296875 C-94.46472656 64.68445313 -94.73414063 63.43921875 -95.01171875 62.15625 C-95.27855469 60.92648437 -95.54539062 59.69671875 -95.8203125 58.4296875 C-99.49703381 40.63664242 -97.56983259 23.31954444 -87.57421875 7.78125 C-65.46691976 -19.63031704 -27.42397775 -18.09744407 0 0 Z " fill="#FEFEFE" transform="translate(904.57421875,434.21875)"/>
<path d="M0 0 C1.16410885 3.49232655 1.06447762 6.12586699 0.9921875 9.80859375 C0.97196572 11.19847192 0.95280192 12.58836579 0.93457031 13.97827148 C0.92413696 14.7056955 0.91370361 15.43311951 0.9029541 16.18258667 C0.75853957 27.83176255 1.00653378 39.06817565 3.08203125 50.55859375 C4.25151353 57.09125856 4.94381146 63.68169655 5.68637085 70.27322388 C6.93850018 81.37592417 8.29492231 92.44707903 9.9375 103.5 C12.00806708 117.44340817 13.64182169 131.43238475 15.24975586 145.43554688 C16.17255458 153.42032685 17.15587595 161.35219053 18.54882812 169.27148438 C19.37049396 174.24060633 19.8886849 179.24471374 20.4375 184.25 C20.69444786 186.5287435 20.9522817 188.80738724 21.2109375 191.0859375 C21.34081055 192.2315918 21.47068359 193.37724609 21.60449219 194.55761719 C23.69561214 212.81652312 23.69561214 212.81652312 26.53515625 230.96875 C27.29128775 235.89948988 27.75111561 240.85992687 28.25463867 245.82177734 C29.21476024 255.23782014 30.49783144 264.59794192 31.875 273.9609375 C33.90867468 287.8595759 35.71798069 301.7582534 37.31582642 315.71231079 C38.35589228 324.77945147 39.50445279 333.81050181 40.93041992 342.82617188 C41.92215865 349.20001322 42.66578138 355.58911431 43.375 362 C44.66281911 373.63347525 46.24913538 385.21332114 47.89883423 396.79968262 C49.12749601 405.43715128 50.28018357 414.05841819 51.0625 422.75 C53.50263766 448.46155606 63.62945644 471.80905673 82 490 C82.84046875 490.86238281 83.6809375 491.72476562 84.546875 492.61328125 C104.23123724 511.79062204 130.40581247 519.53755916 157.34741211 519.36508179 C158.81982577 519.36694632 160.29223823 519.37014244 161.76464653 519.3745333 C165.76069586 519.38277305 169.75651116 519.37272258 173.75253892 519.35944462 C178.08101787 519.34844296 182.40947527 519.35502314 186.73796082 519.35957336 C194.22256839 519.36529488 201.70711094 519.36073138 209.19171143 519.34955978 C220.02164316 519.33384873 230.85148815 519.33949721 241.68142128 519.35117622 C259.26759529 519.37003053 276.85375746 519.37928893 294.43994141 519.37890625 C295.49046314 519.37888881 296.54098488 519.37887137 297.62334061 519.3788534 C309.35515807 519.37840075 321.08697127 519.37506308 332.81878662 519.36798096 C334.40322458 519.36703238 334.40322458 519.36703238 336.01967138 519.36606465 C337.60269366 519.3651158 337.60269366 519.3651158 339.21769619 519.36414778 C341.34613991 519.36287798 343.47458362 519.36161257 345.60302734 519.36035156 C347.18051229 519.35940928 347.18051229 519.35940928 348.78986561 519.35844795 C366.32371172 519.34849542 383.85748717 519.35781123 401.39131832 519.38253558 C412.19603514 519.39696447 423.00050316 519.39490371 433.80520564 519.37157358 C441.20167973 519.35683273 448.59800778 519.35997052 455.99447602 519.3772025 C460.26093517 519.38654303 464.52698897 519.38767832 468.79341698 519.36697197 C472.70030583 519.34815798 476.60647266 519.35239669 480.5133363 519.37479956 C481.92483704 519.37882841 483.33639285 519.37443489 484.74783218 519.3606656 C493.08809136 519.28462427 498.37315327 519.87591254 505 525 C509.20617828 526.74959667 512.74106181 527.26233687 517.28076172 527.31884766 C518.5015744 527.33871735 519.72238708 527.35858704 520.98019409 527.37905884 C522.28352692 527.39061005 523.58685974 527.40216125 524.9296875 527.4140625 C526.28875888 527.4327915 527.64781885 527.45236619 529.00686646 527.4727478 C532.56759892 527.52389241 536.128369 527.56361204 539.68927002 527.60089111 C543.32939832 527.6410422 546.9693725 527.69208364 550.609375 527.7421875 C557.73947024 527.83873715 564.86966235 527.92320836 572 528 C571.06270932 529.11903608 570.12171541 530.23497096 569.17919922 531.34960938 C568.65558807 531.97138062 568.13197693 532.59315186 567.59249878 533.23376465 C556.94555775 545.04225322 539.18632431 551.31032403 524 554 C522.65270173 554.2591444 522.65270173 554.2591444 521.27818531 554.52352405 C517.7007974 555.04348834 514.29710157 555.12790053 510.68184757 555.13142776 C509.60439823 555.13450672 509.60439823 555.13450672 508.50518224 555.13764787 C506.09768085 555.14330336 503.69023694 555.14186241 501.2827301 555.14044189 C499.53932614 555.14302637 497.79592277 555.14603977 496.05252022 555.1494453 C491.26076525 555.15750905 486.46902528 555.15930452 481.67726433 555.16004276 C476.50934137 555.16189445 471.34142616 555.16944245 466.17350769 555.17617798 C454.87156444 555.18975824 443.56962474 555.19578578 432.26767468 555.20018864 C425.20833019 555.20295205 418.14898705 555.20718963 411.08964348 555.21169281 C391.53849276 555.22388596 371.98734314 555.23418461 352.4361887 555.2375679 C351.18490568 555.23778747 349.93362267 555.23800703 348.64442199 555.23823325 C347.39016453 555.23845153 346.13590708 555.23866981 344.84364182 555.2388947 C342.30209259 555.23933816 339.76054337 555.23978473 337.21899414 555.24023438 C335.32795464 555.24056652 335.32795464 555.24056652 333.39871233 555.24090537 C312.98145367 555.24485144 292.56423075 555.26229943 272.1469859 555.2855939 C251.17708197 555.30932541 230.20719597 555.3217706 209.2372784 555.32293582 C197.46670933 555.32385166 185.6961868 555.32958096 173.92563057 555.34775543 C163.90021995 555.36318082 153.87487024 555.36826256 143.84945 555.36001733 C138.7377565 555.35611924 133.62618559 555.35699923 128.51450729 555.37107468 C123.82676914 555.38386422 119.13924504 555.38257195 114.45150696 555.37048396 C112.76367618 555.36853567 111.07582997 555.37156488 109.38802082 555.38032833 C84.49624972 555.50129567 63.04016507 548.61021394 44 532 C43.07960938 531.20529297 43.07960938 531.20529297 42.140625 530.39453125 C28.14377033 517.39286579 19.38132845 497.91499294 17.03125 479.1953125 C16.94901184 478.55100281 16.86677368 477.90669312 16.78204346 477.24285889 C16.51734054 475.1623923 16.25865763 473.0812259 16 471 C15.82373058 469.60817374 15.6469696 468.21640964 15.46972656 466.82470703 C15.09538921 463.88233335 14.72253206 460.93977807 14.35083008 457.99707031 C12.77137376 445.50928512 11.16260936 433.02736066 9.41015625 420.5625 C9.27694977 419.61493835 9.14374329 418.66737671 9.00650024 417.69110107 C8.36227326 413.12033188 7.71235655 408.55043952 7.05566406 403.98144531 C5.75750112 394.88250027 4.62493376 385.79180637 3.70872498 376.64628601 C3.14670611 371.12760772 2.37819777 365.66856275 1.49121094 360.19189453 C0.63891814 354.65368574 0.01844079 349.0872721 -0.631073 343.52224731 C-1.91934318 332.51191312 -3.31187549 321.52891052 -4.9375 310.5625 C-6.63759423 299.04335757 -8.03236046 287.5026974 -9.375 275.9375 C-11.05991433 261.42836024 -12.93429476 246.95977204 -15 232.5 C-17.16681419 217.32833686 -19.10395753 202.14513695 -20.86862183 186.92163086 C-22.36676938 174.01774255 -24.04480389 161.15213636 -25.87713623 148.29168701 C-27.66228133 135.73976543 -29.22295456 123.17098979 -30.65649414 110.57421875 C-31.81057189 100.45297575 -33.07175281 90.35370636 -34.54443359 80.2734375 C-37.55460848 58.64405653 -30.9167997 36.70458987 -18.20703125 19.17822266 C-12.83054506 12.15599728 -6.40343354 6.07126695 0 0 Z " fill="#8AC3EE" transform="translate(468,349)"/>
<path d="M0 0 C0.74899795 -0.00297112 1.4979959 -0.00594224 2.26969075 -0.0090034 C4.78684039 -0.01769529 7.30394249 -0.01919907 9.82110596 -0.02069092 C11.6229767 -0.02531878 13.42484647 -0.0303434 15.22671509 -0.03573608 C20.12767722 -0.04886596 25.02862565 -0.05530629 29.92960262 -0.05974674 C32.99125033 -0.06267678 36.05289428 -0.06678147 39.1145401 -0.07125092 C48.69282157 -0.08492796 58.27109447 -0.09459336 67.84938502 -0.09845281 C78.90757794 -0.10293294 89.9656472 -0.12047792 101.02380252 -0.1494534 C109.56997645 -0.17106965 118.11611559 -0.18115707 126.66231656 -0.18249393 C131.76710081 -0.18354208 136.87176887 -0.18945198 141.97652435 -0.20731354 C146.77982787 -0.22379298 151.58292783 -0.22595031 156.38624954 -0.21717453 C158.14745504 -0.21640406 159.90867147 -0.22074812 161.6698494 -0.23063278 C164.07815567 -0.24335471 166.48574131 -0.23747445 168.89404297 -0.22705078 C169.58754121 -0.23510719 170.28103944 -0.24316359 170.99555278 -0.25146413 C176.6087695 -0.19482032 181.23422807 1.11899905 185.62677002 4.71856689 C186.08438721 5.27028564 186.54200439 5.82200439 187.01348877 6.39044189 C187.48399658 6.93184814 187.95450439 7.47325439 188.43927002 8.03106689 C191.403367 12.98652315 192.03471175 18.77012054 192.66583252 24.41778564 C192.74367477 25.09792221 192.82151703 25.77805878 192.90171814 26.47880554 C193.06704874 27.92885819 193.22975494 29.37921215 193.39001465 30.82983398 C193.64173982 33.10735627 193.90053815 35.38397297 194.16143799 37.66046143 C194.51177131 40.71756277 194.86020447 43.77487004 195.20733643 46.83233643 C195.88006446 52.73082758 196.59255679 58.6242042 197.32598877 64.51544189 C197.44764404 65.4927124 197.56929932 66.46998291 197.69464111 67.47686768 C198.40126092 73.05087968 199.25175423 78.57707839 200.23614502 84.10919189 C200.99033033 89.02724066 201.45451275 93.97471972 201.94683838 98.92486572 C202.45827182 104.01943216 203.09248682 109.07307981 203.82598877 114.14044189 C206.21085719 131.82662611 206.21085719 131.82662611 201.70098877 138.14044189 C197.26705593 142.5864893 193.72965574 144.24410965 187.42583394 144.29283369 C186.70784902 144.29333144 185.98986411 144.2938292 185.25012207 144.29434204 C184.48478991 144.29872429 183.71945776 144.30310655 182.93093371 144.3076216 C180.35851469 144.32100903 177.78612993 144.32718832 175.21368408 144.33331299 C173.37240443 144.34121396 171.53112633 144.34948291 169.68984985 144.35809326 C163.6362862 144.38431261 157.58271563 144.39962022 151.52911377 144.41387939 C149.4456456 144.419239 147.36217748 144.42461651 145.27870941 144.43001175 C136.61274948 144.45163981 127.94679141 144.47037695 119.28081131 144.48163414 C106.85866796 144.49787649 94.43683724 144.5310622 82.01481175 144.58803499 C73.28180537 144.62672387 64.54888264 144.64626556 55.8157928 144.6515547 C50.5991321 144.65520942 45.38280486 144.66724372 40.16623688 144.69965744 C35.25778146 144.72971962 30.34986159 144.73605645 25.44133377 144.72427368 C23.64141214 144.7240528 21.8414658 144.73237022 20.04162979 144.74992752 C17.5803732 144.772627 15.12105742 144.76432213 12.65979004 144.7484436 C11.95072801 144.76232569 11.24166598 144.77620778 10.51111722 144.79051054 C4.97209771 144.70271262 1.68622844 142.73815625 -2.29901123 139.14044189 C-5.96188287 134.40733433 -7.03559889 128.75374812 -7.71307373 122.93341064 C-7.81306168 122.17442978 -7.91304962 121.41544891 -8.0160675 120.63346863 C-8.33289139 118.19986387 -8.62889104 115.76426477 -8.92401123 113.32794189 C-9.13820282 111.64730528 -9.35345736 109.9668038 -9.56976318 108.28643799 C-10.79285798 98.69300169 -11.94228932 89.09041051 -12.84197998 79.46075439 C-13.40819271 73.73492819 -14.22934124 68.03980997 -15.00192261 62.33898926 C-15.87989461 55.8417259 -16.73717794 49.34175074 -17.58612061 42.84063721 C-17.81282742 41.11281676 -18.04169598 39.38527868 -18.27264404 37.65802002 C-18.61244934 35.11378769 -18.94472276 32.56866472 -19.27557373 30.02325439 C-19.37866852 29.26368439 -19.48176331 28.50411438 -19.58798218 27.7215271 C-21.320624 14.18366744 -21.320624 14.18366744 -18.67401123 8.89044189 C-13.05951035 2.38944088 -8.64152379 -0.01065988 0 0 Z " fill="#FDFEFE" transform="translate(975.2990112304688,715.8595581054688)"/>
<path d="M0 0 C1.4540625 1.2375 1.4540625 1.2375 2.9375 2.5 C3.91396484 3.32757812 3.91396484 3.32757812 4.91015625 4.171875 C6.26256073 5.35491294 7.58587579 6.57242144 8.87109375 7.828125 C28.15166052 26.3194288 54.23941291 33.53222253 80.34741211 33.36508179 C81.81982577 33.36694632 83.29223823 33.37014244 84.76464653 33.3745333 C88.76069586 33.38277305 92.75651116 33.37272258 96.75253892 33.35944462 C101.08101787 33.34844296 105.40947527 33.35502314 109.73796082 33.35957336 C117.22256839 33.36529488 124.70711094 33.36073138 132.19171143 33.34955978 C143.02164316 33.33384873 153.85148815 33.33949721 164.68142128 33.35117622 C182.26759529 33.37003053 199.85375746 33.37928893 217.43994141 33.37890625 C218.49046314 33.37888881 219.54098488 33.37887137 220.62334061 33.3788534 C232.35515807 33.37840075 244.08697127 33.37506308 255.81878662 33.36798096 C257.40322458 33.36703238 257.40322458 33.36703238 259.01967138 33.36606465 C260.60269366 33.3651158 260.60269366 33.3651158 262.21769619 33.36414778 C264.34613991 33.36287798 266.47458362 33.36161257 268.60302734 33.36035156 C270.18051229 33.35940928 270.18051229 33.35940928 271.78986561 33.35844795 C289.32371172 33.34849542 306.85748717 33.35781123 324.39131832 33.38253558 C335.19603514 33.39696447 346.00050316 33.39490371 356.80520564 33.37157358 C364.20167973 33.35683273 371.59800778 33.35997052 378.99447602 33.3772025 C383.26093517 33.38654303 387.52698897 33.38767832 391.79341698 33.36697197 C395.70030583 33.34815798 399.60647266 33.35239669 403.5133363 33.37479956 C404.92483704 33.37882841 406.33639285 33.37443489 407.74783218 33.3606656 C416.08809136 33.28462427 421.37315327 33.87591254 428 39 C432.20617828 40.74959667 435.74106181 41.26233687 440.28076172 41.31884766 C441.5015744 41.33871735 442.72238708 41.35858704 443.98019409 41.37905884 C445.28352692 41.39061005 446.58685974 41.40216125 447.9296875 41.4140625 C449.28875888 41.4327915 450.64781885 41.45236619 452.00686646 41.4727478 C455.56759892 41.52389241 459.128369 41.56361204 462.68927002 41.60089111 C466.32939832 41.6410422 469.9693725 41.69208364 473.609375 41.7421875 C480.73947024 41.83873715 487.86966235 41.92320836 495 42 C494.06270932 43.11903608 493.12171541 44.23497096 492.17919922 45.34960938 C491.65558807 45.97138062 491.13197693 46.59315186 490.59249878 47.23376465 C479.94555775 59.04225322 462.18632431 65.31032403 447 68 C446.10180115 68.17276294 445.2036023 68.34552587 444.27818531 68.52352405 C440.7007974 69.04348834 437.29710157 69.12790053 433.68184757 69.13142776 C432.60439823 69.13450672 432.60439823 69.13450672 431.50518224 69.13764787 C429.09768085 69.14330336 426.69023694 69.14186241 424.2827301 69.14044189 C422.53932614 69.14302637 420.79592277 69.14603977 419.05252022 69.1494453 C414.26076525 69.15750905 409.46902528 69.15930452 404.67726433 69.16004276 C399.50934137 69.16189445 394.34142616 69.16944245 389.17350769 69.17617798 C377.87156444 69.18975824 366.56962474 69.19578578 355.26767468 69.20018864 C348.20833019 69.20295205 341.14898705 69.20718963 334.08964348 69.21169281 C314.53849276 69.22388596 294.98734314 69.23418461 275.4361887 69.2375679 C274.18490568 69.23778747 272.93362267 69.23800703 271.64442199 69.23823325 C270.39016453 69.23845153 269.13590708 69.23866981 267.84364182 69.2388947 C265.30209259 69.23933816 262.76054337 69.23978473 260.21899414 69.24023438 C258.32795464 69.24056652 258.32795464 69.24056652 256.39871233 69.24090537 C235.98145367 69.24485144 215.56423075 69.26229943 195.1469859 69.2855939 C174.17708197 69.30932541 153.20719597 69.3217706 132.2372784 69.32293582 C120.46670933 69.32385166 108.6961868 69.32958096 96.92563057 69.34775543 C86.90021995 69.36318082 76.87487024 69.36826256 66.84945 69.36001733 C61.7377565 69.35611924 56.62618559 69.35699923 51.51450729 69.37107468 C46.82676914 69.38386422 42.13924504 69.38257195 37.45150696 69.37048396 C35.76367618 69.36853567 34.07582997 69.37156488 32.38802082 69.38032833 C7.31960857 69.5021541 -13.6816126 62.45482112 -33 46 C-29.31473095 40.09347289 -25.18751919 34.56719083 -20.9375 29.0625 C-16.10571691 22.80108294 -11.37954615 16.47507761 -6.75 10.0625 C-6.18917725 9.28720947 -5.62835449 8.51191895 -5.05053711 7.71313477 C-2.31359739 3.98660141 -2.31359739 3.98660141 0 0 Z " fill="#69AFE0" transform="translate(545,835)"/>
<path d="M0 0 C0.90135681 -0.00832352 1.80271362 -0.01664703 2.73138428 -0.02522278 C5.71338215 -0.04932965 8.69516108 -0.05809752 11.67724609 -0.06469727 C13.75507675 -0.0736659 15.83290675 -0.08278779 17.91073608 -0.09205627 C22.27025928 -0.10855268 26.62970564 -0.11624708 30.98925781 -0.11914062 C36.55761158 -0.12451274 42.12523588 -0.16214193 47.69338417 -0.20788479 C51.98813463 -0.23773308 56.28271148 -0.24486594 60.57755661 -0.24586678 C62.62914735 -0.25005674 64.6807392 -0.26244152 66.73222733 -0.28338432 C78.91733556 -0.39783249 88.10253293 -0.42708295 97.88818359 7.61889648 C103.22539216 14.17603844 105.83305922 19.58576564 106.80615234 28.00952148 C106.92751053 28.92739441 107.04886871 29.84526733 107.17390442 30.79095459 C107.55514851 33.71077089 107.90928429 36.6331543 108.26318359 39.55639648 C108.51082106 41.47068117 108.76015777 43.38474683 109.01123047 45.29858398 C110.31403472 55.37053184 111.41902575 65.45301406 112.39222717 75.5617218 C112.97050471 81.4912962 113.7554865 87.36139181 114.70068359 93.24389648 C117.92917219 114.98023537 117.92917219 114.98023537 113.34521484 122.65795898 C110.07945218 126.8984262 106.21576168 129.72609037 101.07568359 131.30639648 C98.04638018 131.59622455 95.03160558 131.58991914 91.99023438 131.58105469 C91.08391266 131.58616562 90.17759094 131.59127655 89.24380493 131.59654236 C86.25280115 131.61042297 83.26202822 131.60948261 80.27099609 131.60717773 C78.18740758 131.61106573 76.10381985 131.61540061 74.02023315 131.62016296 C69.65408763 131.62762205 65.28802297 131.62733629 60.921875 131.62207031 C55.33438002 131.61627858 49.74721683 131.63320117 44.15977669 131.65641499 C39.8565783 131.67116748 35.55345952 131.67202191 31.25024033 131.66890526 C29.19061501 131.66941779 27.13098517 131.67464265 25.07138443 131.68471718 C22.18734618 131.69709239 19.30395031 131.69028306 16.41992188 131.67871094 C15.57397461 131.68635468 14.72802734 131.69399841 13.85644531 131.70187378 C5.78217563 131.63048401 -0.05748376 129.05587507 -5.94042969 123.43798828 C-13.51579008 115.29862431 -14.0887454 105.02331306 -15.04931641 94.49389648 C-15.28782275 92.12700521 -15.53337923 89.76090895 -15.77912903 87.39476013 C-15.94023003 85.83832095 -16.09909674 84.28164879 -16.25566101 82.7247467 C-16.85070859 76.83204137 -17.60224149 70.97549291 -18.48681641 65.11889648 C-18.72432438 63.505693 -18.96130629 61.89241198 -19.19775391 60.27905273 C-19.31473633 59.48257324 -19.43171875 58.68609375 -19.55224609 57.86547852 C-25.41213935 17.56140957 -25.41213935 17.56140957 -20.73681641 9.49389648 C-18.4766235 6.63992408 -15.96085337 4.33075446 -12.92431641 2.30639648 C-12.39810699 1.94920029 -11.87189758 1.59200409 -11.32974243 1.22398376 C-7.63259729 -0.18634992 -3.90487876 0.00305753 0 0 Z " fill="#1D82BF" transform="translate(1185.92431640625,359.693603515625)"/>
<path d="M0 0 C3.39413836 2.34208071 6.18232924 4.99183891 8.77734375 8.19140625 C11.8566819 10.69708914 13.72446704 10.24452643 17.625 9.9375 C25.90521869 9.73135348 31.16122843 11.48932856 37.28515625 17.08984375 C45.18516479 25.47733013 46.38596901 31.80373827 46.10546875 42.96484375 C46.07066406 43.96644531 46.03585937 44.96804688 46 46 C47.16015625 46.42732422 47.16015625 46.42732422 48.34375 46.86328125 C54.8076503 49.62945035 59.29728066 56.51347944 62.3125 62.6875 C64.09402457 71.27120931 63.89771082 79.50226985 59 87 C58.30261719 87.60585938 57.60523438 88.21171875 56.88671875 88.8359375 C54.30694874 91.79492836 54.56679785 93.74833804 54.5625 97.625 C54.21997423 105.10607428 52.64173702 111.050116 47.4765625 116.65234375 C42.56069228 120.9568494 38.91776912 122.26859552 32.4375 122.1875 C30.73400391 122.17783203 30.73400391 122.17783203 28.99609375 122.16796875 C26 122 26 122 23 121 C22.62875 122.0828125 22.62875 122.0828125 22.25 123.1875 C19.89076803 128.49577194 16.80343094 131.87153224 11.53125 134.26171875 C5.1546211 136.12156884 -1.67562053 136.26112519 -7.9140625 133.89453125 C-12.1775129 131.49231524 -14.97109749 129.22269224 -17.625 125.125 C-18.91740143 123.21516783 -18.91740143 123.21516783 -21 122 C-24.38286833 121.7507746 -27.58484815 121.81549184 -30.96313477 121.97924805 C-37.35058673 122.21887888 -41.09182481 120.98344653 -46 117 C-46.63292969 116.5153125 -47.26585937 116.030625 -47.91796875 115.53125 C-53.90358944 110.32414287 -57.41454875 102.67781343 -58.39453125 94.84765625 C-59.12422481 91.41574265 -60.05866032 90.58453913 -62.8125 88.5 C-67.78455936 84.4618695 -70.98481089 80.1135906 -73 74 C-73.79177488 66.09058571 -74.43381752 58.07053836 -69.3828125 51.4609375 C-68.1926025 50.20348399 -66.91532011 49.02949694 -65.625 47.875 C-64.820625 46.946875 -64.820625 46.946875 -64 46 C-64.28343702 43.9923211 -64.62746357 41.99306992 -65 40 C-66.17006101 24.65548559 -66.17006101 24.65548559 -61.56640625 18.6484375 C-53.50773372 10.16773973 -53.50773372 10.16773973 -47.22265625 9.8671875 C-45.65837891 9.87105469 -45.65837891 9.87105469 -44.0625 9.875 C-43.02222656 9.87242187 -41.98195313 9.86984375 -40.91015625 9.8671875 C-38.42334029 9.98067977 -36.36907593 10.28071429 -34 11 C-33.835 10.154375 -33.67 9.30875 -33.5 8.4375 C-31.09028628 2.91523939 -26.66419766 -0.46808634 -21.5 -3.4375 C-13.62996056 -5.20825887 -7.15352257 -3.48066919 0 0 Z " fill="#1D82BF" transform="translate(362,805)"/>
<path d="M0 0 C1.75698504 -0.0041799 3.51396738 -0.00966099 5.27094477 -0.01631981 C10.06780833 -0.03070717 14.86449908 -0.02655077 19.66137183 -0.019153 C24.8469264 -0.01440692 30.03244437 -0.02694391 35.21798706 -0.03717041 C45.36501154 -0.05433584 55.51197403 -0.05520306 65.65900926 -0.04995751 C73.90990341 -0.04591021 82.1607793 -0.04736601 90.41167259 -0.05270576 C91.58759555 -0.05345419 92.7635185 -0.05420261 93.97507548 -0.05497371 C96.36424584 -0.05650525 98.7534162 -0.05804359 101.14258655 -0.05958868 C123.53040591 -0.07330567 145.91819029 -0.06788175 168.30600884 -0.05640347 C188.76743088 -0.04647295 209.22876247 -0.05941008 229.69017056 -0.08333766 C250.72245959 -0.10774667 271.75470652 -0.11733203 292.78700942 -0.11068493 C304.58601778 -0.10719659 316.38495661 -0.1093993 328.18395424 -0.12693596 C338.22858657 -0.14168049 348.2731004 -0.14226397 358.31773046 -0.12486505 C363.43772589 -0.11637109 368.55750982 -0.11416623 373.67749405 -0.1295166 C378.37370711 -0.14342157 383.06952863 -0.13852634 387.76571938 -0.11927737 C389.45537437 -0.11553478 391.14506117 -0.11838848 392.83468769 -0.12888902 C403.79559995 -0.19210923 413.94285985 0.80251474 424.37174988 4.38768005 C425.03174988 5.04768005 425.69174988 5.70768005 426.37174988 6.38768005 C425.04837186 6.38857569 425.04837186 6.38857569 423.69825894 6.38948941 C371.37323807 6.42540724 319.04827462 6.48208291 266.72330696 6.56560101 C260.436281 6.57561809 254.14925479 6.58546229 247.86222839 6.59519958 C246.61062947 6.59714096 245.35903054 6.59908233 244.06950437 6.60108253 C223.82136424 6.6320777 203.57323543 6.64907626 183.32507605 6.66087428 C162.5383836 6.6732987 141.75175046 6.70082927 120.96509546 6.74229312 C108.14545403 6.76739149 95.325911 6.7808 82.50624465 6.77910963 C73.7074371 6.7790798 64.90872954 6.79376382 56.10996098 6.81984434 C51.03855008 6.83444747 45.96734423 6.84273004 40.89591599 6.83348274 C36.24228937 6.82514131 31.58907316 6.83549878 26.93550711 6.86001667 C25.26227725 6.86565872 23.58900794 6.86475024 21.91579045 6.8561925 C-3.14581252 6.739114 -25.61855027 14.70313357 -44.62825012 31.38768005 C-45.37719543 32.04123474 -46.12614075 32.69478943 -46.89778137 33.3681488 C-62.2342546 47.68398108 -73.66389838 70.03906485 -74.77351379 91.15159607 C-74.79831707 94.41789466 -74.8139099 97.68378026 -74.81575012 100.95018005 C-74.83411926 102.62563904 -74.83411926 102.62563904 -74.8528595 104.33494568 C-74.86601221 111.89775528 -74.03816167 118.96864718 -72.62825012 126.38768005 C-71.40833145 134.59671611 -70.46321326 142.8200421 -69.62825012 151.07518005 C-69.0261819 157.00960272 -68.26981515 162.85277666 -67.21443176 168.72581482 C-66.44778474 173.51504374 -65.86469431 178.31979195 -65.27668762 183.1337738 C-64.19650621 191.87618449 -63.08815063 200.61426083 -61.94465637 209.34861755 C-61.80267822 210.43463257 -61.66070007 211.52064758 -61.51441956 212.63957214 C-61.22283017 214.86977501 -60.93117302 217.09996902 -60.63945007 219.33015442 C-58.5168472 235.56792923 -56.41533244 251.80386805 -54.56575012 268.07518005 C-52.89037871 282.80943218 -50.85294805 297.48539434 -48.73347473 312.16184998 C-47.41240877 321.36830733 -46.25647402 330.5632707 -45.33505249 339.818573 C-44.79293993 345.14922321 -44.02205604 350.39994466 -43.08381653 355.67674255 C-42.29180522 360.38976163 -41.82376064 365.13718836 -41.31575012 369.88768005 C-40.09691954 380.89791883 -38.62072315 391.85837883 -37.06575012 402.82518005 C-35.53211123 413.64163561 -34.06780303 424.44186324 -33.08528137 435.32518005 C-32.75605988 438.6436311 -32.22065568 441.90612876 -31.65559387 445.19236755 C-30.67047654 450.95096116 -29.99235752 456.70478693 -29.37825012 462.51268005 C-28.1139539 473.83158866 -26.64726923 485.11970546 -25.07832336 496.40007019 C-24.82280709 498.24610483 -24.57101064 500.0926587 -24.32319641 501.93974304 C-22.53844095 515.19779747 -20.22973633 527.51767595 -14.36262512 539.6806488 C-13.62825012 541.38768005 -13.62825012 541.38768005 -13.62825012 543.38768005 C-20.04049866 542.13650961 -23.03458392 538.525794 -26.62825012 533.38768005 C-35.06826673 519.68922377 -39.08641602 506.3999081 -41.31233215 490.56004333 C-41.71019738 487.82418182 -42.19723593 485.10774662 -42.69075012 482.38768005 C-43.69403956 476.48402648 -44.2861901 470.54667399 -44.84333801 464.5868988 C-45.25055112 460.38871497 -45.80090013 456.26055046 -46.53450012 452.10643005 C-48.27264316 441.99301258 -49.28027784 431.76927237 -50.45100403 421.57810974 C-51.50467123 412.43566811 -52.56079019 403.33130972 -54.15901184 394.26512146 C-55.02922563 388.92883649 -55.59668868 383.55406557 -56.20246887 378.18241882 C-56.62345112 374.4594649 -57.05721821 370.73800532 -57.49153137 367.0165863 C-57.58262177 366.23595825 -57.67371216 365.4553302 -57.76756287 364.65104675 C-58.82984406 355.59761086 -59.96941203 346.55420537 -61.12825012 337.51268005 C-61.234487 336.68316833 -61.34072388 335.85365662 -61.45018005 334.99900818 C-62.75456922 324.84389268 -64.13677922 314.70475327 -65.62825012 304.57518005 C-67.48653862 291.95430404 -68.97281189 279.29805888 -70.44999695 266.62800598 C-71.85455201 254.59963979 -73.39322233 242.61293253 -75.17463684 230.6337738 C-76.7619098 219.81775748 -78.01667647 208.96733557 -79.23396301 198.10447693 C-80.03043965 191.0582821 -80.96980702 184.07301002 -82.18635559 177.08641052 C-82.84618981 173.05668264 -83.24952452 169.01446689 -83.62825012 164.95018005 C-84.10492507 159.8612336 -84.69429595 154.8195191 -85.49543762 149.77049255 C-86.95359468 140.50010349 -88.15251089 131.19601148 -89.34260559 121.88792419 C-89.61529337 119.77110827 -89.89260164 117.65488218 -90.17463684 115.53929138 C-91.55461193 105.17820654 -92.87942202 94.88185699 -92.90950012 84.4150238 C-92.91224945 83.72338638 -92.91499878 83.03174896 -92.91783142 82.31915283 C-92.57702827 59.52458498 -81.02452149 39.02185688 -65.13191223 23.35447693 C-46.94395304 6.15312301 -24.63679044 -0.09609744 0 0 Z " fill="#CEE5F8" transform="translate(576.6282501220703,281.61231994628906)"/>
<path d="M0 0 C0.92032634 0.21171642 0.92032634 0.21171642 1.85924512 0.42770994 C10.10251526 2.14193551 18.18168853 2.29082843 26.55924988 2.2784729 C28.11554656 2.28348375 29.67184064 2.28936184 31.22813112 2.29602563 C35.47888197 2.31174423 39.72956658 2.3152518 43.98034298 2.31667423 C48.57394021 2.32038257 53.1675017 2.33554515 57.76107788 2.34928894 C65.71121531 2.37152067 73.66133995 2.38655849 81.61150169 2.39665604 C93.10597801 2.41126572 104.60040977 2.43680895 116.09485988 2.46498732 C134.74560115 2.51041375 153.39634885 2.5470457 172.04711914 2.578125 C190.16041187 2.60832755 208.27368888 2.64268565 226.38696289 2.68261719 C227.50419627 2.68507874 228.62142966 2.68754028 229.7725186 2.69007643 C235.37756849 2.70245136 240.9826182 2.71490783 246.58766782 2.72740483 C293.0584233 2.83091049 339.52919829 2.92013423 386 3 C386.50938345 5.49840454 387.00763114 7.99823388 387.5 10.5 C387.64308594 11.19609375 387.78617188 11.8921875 387.93359375 12.609375 C388.88277373 17.49087203 389.13440046 22.02718299 389 27 C345.44880384 27.09164235 301.89761793 27.16208277 258.34634429 27.20426132 C253.19964604 27.20926388 248.05294797 27.2144412 242.90625 27.21972656 C241.88167549 27.2207758 240.85710097 27.22182505 239.80147874 27.22290608 C223.23208436 27.2402907 206.66274574 27.27181765 190.09338439 27.30861118 C173.0798439 27.34607474 156.06633253 27.36824729 139.05275249 27.37635398 C128.56237688 27.38183053 118.07215889 27.39910051 107.58183181 27.43166587 C100.37907515 27.45288065 93.17639946 27.45918434 85.97361386 27.45400551 C81.82377768 27.45145453 77.67421612 27.45524423 73.52442932 27.4768219 C69.71404362 27.49648852 65.90411355 27.49714202 62.09370553 27.48359558 C60.08539303 27.48114236 58.07708475 27.49821315 56.06885242 27.51632524 C43.79411369 27.43685622 31.42416344 25.07059551 20.5625 19.125 C19.9034668 18.77767822 19.24443359 18.43035645 18.56542969 18.07250977 C16.69557313 17.07244493 14.84537637 16.0444045 13 15 C12.05511719 14.47019531 11.11023438 13.94039062 10.13671875 13.39453125 C5.05578209 10.29274831 2.41686962 7.46422696 0 2 C0 1.34 0 0.68 0 0 Z " fill="#6AB0E1" transform="translate(564,825)"/>
<path d="M0 0 C19.43456295 15.7130509 30.17359186 36.7958436 33.35693359 61.36474609 C33.47759689 62.26715027 33.59826019 63.16955444 33.72257996 64.0993042 C34.11904772 67.07343555 34.50886815 70.04839532 34.8984375 73.0234375 C35.17712778 75.1277804 35.45615646 77.2320785 35.73550415 79.33633423 C36.32165688 83.75916834 36.904696 88.18239793 37.48535156 92.60595703 C38.2156696 98.16891156 38.9520452 103.73104133 39.6905632 109.29291248 C42.50126398 130.4716237 45.25558554 151.65217357 47.70199585 172.876297 C49.00040808 184.12449197 50.46123451 195.34498433 52 206.5625 C53.64783583 218.60009961 55.21182902 230.64359765 56.65492249 242.70757866 C58.09225894 254.72323715 59.5964698 266.72657858 61.21875 278.71875 C61.35884491 279.75473233 61.35884491 279.75473233 61.50177002 280.8116436 C62.16472918 285.70818798 62.831874 290.60415833 63.5 295.5 C64.26331483 301.09335896 65.0247265 306.68696801 65.78125 312.28125 C65.87407509 312.96738121 65.96690018 313.65351242 66.06253815 314.36043549 C67.69768755 326.477522 69.19116132 338.6095127 70.64361572 350.74969482 C71.91274408 361.35236651 73.30024981 371.93164414 74.7734375 382.5078125 C74.93585938 383.69632813 75.09828125 384.88484375 75.265625 386.109375 C75.40774414 387.12999023 75.54986328 388.15060547 75.69628906 389.20214844 C76 392 76 392 76 397 C29.8 397 -16.4 397 -64 397 C-64 396.67 -64 396.34 -64 396 C-25.39 395.67 13.22 395.34 53 395 C50.58560375 374.05198121 50.58560375 374.05198121 47.62109375 353.2265625 C46.98181146 349.02715517 46.58025569 344.83123423 46.26098633 340.59594727 C46.00811244 338.08069179 45.59156192 335.67041327 45.1015625 333.19140625 C43.8624524 326.52833018 43.01790833 319.82645156 42.19506836 313.10253906 C41.93783943 311.00277081 41.67534428 308.9037104 41.41210938 306.8046875 C40.68544418 300.95966316 39.98513322 295.12160082 39.50390625 289.25 C39.09842493 284.5095307 38.35029651 279.87304696 37.53515625 275.1875 C36.54868483 269.31187458 35.78394993 263.40547737 35 257.5 C34.91284729 256.84824799 34.82569458 256.19649597 34.73590088 255.5249939 C33.52987625 246.48477793 32.48784926 237.44289505 31.6484375 228.36132812 C31.18926105 223.51127684 30.46603402 218.80468389 29.5 214.02734375 C28.65627252 208.91883755 28.23602664 203.76178651 27.78515625 198.60546875 C27.38668662 194.22929354 26.84908679 189.92403413 26.09765625 185.59375 C24.74780506 177.77299496 23.76712527 169.90802735 22.76782227 162.03637695 C22.43763229 159.43854084 22.10284884 156.84132538 21.76757812 154.24414062 C19.99558453 140.41829084 19.99558453 140.41829084 19.47265625 133.97265625 C19.10448351 129.51621404 18.33985982 125.20256574 17.49951172 120.81347656 C16.62051223 115.86255273 16.10806748 110.87175406 15.5625 105.875 C15.30510302 103.58979691 15.04727888 101.3046419 14.7890625 99.01953125 C14.65918945 97.86146973 14.52931641 96.7034082 14.39550781 95.51025391 C13.75877978 89.85909608 13.10322907 84.21030802 12.4375 78.5625 C12.322854 77.56395996 12.20820801 76.56541992 12.09008789 75.53662109 C11.54351654 70.91656096 10.90703436 66.354092 10.02734375 61.78515625 C8.79332356 55.24280714 8.10507351 48.64647444 7.36782837 42.03482056 C6.11722033 30.91137164 4.72877511 19.98135389 1.83203125 9.14453125 C1.02813969 6.10634953 0.46661076 3.10602519 0 0 Z " fill="#69AFE0" transform="translate(1031,303)"/>
<path d="M0 0 C7.14718787 2.63000453 11.62406748 8.35882126 15 15 C17.2486217 20.27769286 17.36656789 25.16719976 17.375 30.8125 C17.39949219 31.66392578 17.42398437 32.51535156 17.44921875 33.39257812 C17.48412945 41.03220211 15.5463593 47.07168681 10.5 52.875 C2.29228514 59.85155763 -5.30487488 61.45836251 -16 61 C-16.33 57.37 -16.66 53.74 -17 50 C-15.30875 49.731875 -13.6175 49.46375 -11.875 49.1875 C-6.24595045 48.14561936 -1.70292503 47.27056671 1.875 42.5 C3.20518234 40.00094992 3.20518234 40.00094992 3 37 C2.45859375 37.32097656 1.9171875 37.64195312 1.359375 37.97265625 C-3.76285284 40.20303029 -10.22383625 40.04330025 -15.421875 38.08984375 C-20.83966298 34.92267822 -23.70899524 30.90476071 -26.25 25.1875 C-27.67513577 19.13067299 -28.06977634 14.18799494 -24.8125 8.6875 C-18.30313776 -0.59573819 -10.59462657 -1.09822349 0 0 Z " fill="#2184C0" transform="translate(1138,756)"/>
<path d="M0 0 C5.76573685 -0.09891077 11.5309794 -0.17148845 17.29736328 -0.21972656 C19.25871381 -0.23983632 21.22000444 -0.26712818 23.18115234 -0.30175781 C26.00112695 -0.35030421 28.82030865 -0.37297486 31.640625 -0.390625 C32.95489471 -0.42159271 32.95489471 -0.42159271 34.29571533 -0.45318604 C38.0223536 -0.45455817 40.30263446 -0.43666878 43.50585938 1.5690918 C45.50269228 4.81786063 45.83869131 7.49834828 46.265625 11.28515625 C46.34874939 11.98265488 46.43187378 12.6801535 46.51751709 13.39878845 C46.77794606 15.61850596 47.01405692 17.84006063 47.25 20.0625 C47.42292836 21.56072669 47.59739149 23.05877707 47.7734375 24.55664062 C49 35.17330139 49 35.17330139 49 39 C53.95 39 58.9 39 64 39 C64.33 39.99 64.66 40.98 65 42 C63.99951172 43.8059082 63.99951172 43.8059082 62.4296875 45.80078125 C61.8625 46.53103516 61.2953125 47.26128906 60.7109375 48.01367188 C59.80214844 49.1515918 59.80214844 49.1515918 58.875 50.3125 C58.29234375 51.05951172 57.7096875 51.80652344 57.109375 52.57617188 C53.81541911 56.78224336 50.44227911 60.91472913 47 65 C42.52688551 64.59528964 40.15991671 61.45135618 37.25 58.375 C36.18687124 57.2793298 35.12176489 56.18557499 34.0546875 55.09375 C33.53616211 54.56265625 33.01763672 54.0315625 32.48339844 53.484375 C29.95059033 50.94989947 27.25443242 48.62084775 24.5234375 46.3046875 C23.30041699 45.25728019 22.13860468 44.13860468 21 43 C21 41.68 21 40.36 21 39 C25.95 39 30.9 39 36 39 C35.7834375 37.54207031 35.566875 36.08414063 35.34375 34.58203125 C35.06231345 32.65888146 34.78107375 30.73570285 34.5 28.8125 C34.35691406 27.85279297 34.21382812 26.89308594 34.06640625 25.90429688 C33.86337891 24.50727539 33.86337891 24.50727539 33.65625 23.08203125 C33.53056641 22.22843018 33.40488281 21.3748291 33.27539062 20.49536133 C32.99727444 17.97530325 32.952392 15.53314218 33 13 C32.41621582 13.05236816 31.83243164 13.10473633 31.23095703 13.15869141 C13.35632388 14.55266576 13.35632388 14.55266576 8.44921875 10.80859375 C6.05930874 8.31954674 4.01254217 5.79652534 2 3 C1.34 2.67 0.68 2.34 0 2 C0 1.34 0 0.68 0 0 Z " fill="#88C2ED" transform="translate(1224,393)"/>
<path d="M0 0 C3.71268094 1.54127351 5.98115698 3.80843234 8.75 6.6875 C12.99491763 11.02633174 17.40572778 15.04088062 22 19 C24.5 21.25 24.5 21.25 26 23 C26 23.99 26 24.98 26 26 C20.72 26 15.44 26 10 26 C10.2165625 27.29035156 10.433125 28.58070313 10.65625 29.91015625 C10.93779102 31.62755648 11.21902475 33.34500711 11.5 35.0625 C11.64308594 35.91005859 11.78617188 36.75761719 11.93359375 37.63085938 C12.72200421 42.49272389 13.16037074 47.07528186 13 52 C13.59425781 51.95810547 14.18851563 51.91621094 14.80078125 51.87304688 C31.8102502 50.82814171 31.8102502 50.82814171 37 53.60546875 C38.94951212 55.63494133 40.43606208 57.66631139 42 60 C43.65190825 61.68129554 45.31727737 63.34954549 47 65 C41.09187458 65.12362482 35.18450226 65.2143513 29.27539062 65.2746582 C27.2654916 65.29979816 25.25568395 65.33391529 23.24609375 65.37719727 C20.35654156 65.43787215 17.46819808 65.46621447 14.578125 65.48828125 C13.68007141 65.51408768 12.78201782 65.5398941 11.85675049 65.56648254 C5.66211197 65.5692657 5.66211197 65.5692657 2.46679688 62.82202148 C0.92234138 59.85058989 0.31372654 57.67801875 -0.046875 54.359375 C-0.16933594 53.28816406 -0.29179688 52.21695313 -0.41796875 51.11328125 C-0.52753906 50.00339844 -0.63710937 48.89351563 -0.75 47.75 C-0.87503906 46.65558594 -1.00007813 45.56117188 -1.12890625 44.43359375 C-1.80244481 38.25332235 -2.13111649 32.2149217 -2 26 C-7.28 26 -12.56 26 -18 26 C-16.87497146 20.3748573 -16.87497146 20.3748573 -14.453125 17.44140625 C-13.9375 16.80783203 -13.421875 16.17425781 -12.890625 15.52148438 C-12.34921875 14.87501953 -11.8078125 14.22855469 -11.25 13.5625 C-10.46109375 12.59860352 -10.46109375 12.59860352 -9.65625 11.61523438 C-8.11396925 9.73510252 -6.55928677 7.86603991 -5 6 C-4.50306641 5.40300293 -4.00613281 4.80600586 -3.49414062 4.19091797 C-2.33053021 2.79302633 -1.16543847 1.39636794 0 0 Z " fill="#89C3EE" transform="translate(1204,393)"/>
<path d="M0 0 C7.49267819 3.79362809 14.56818776 10.03531188 17.78515625 17.97265625 C17.6536884 21.19361858 17.48598753 23.18131988 15.31811523 25.62915039 C11.43581721 27.68835868 7.71416084 27.42066039 3.3828125 27.40625 C2.46809677 27.41149185 1.55338104 27.4167337 0.61094666 27.4221344 C-1.32145168 27.42855091 -3.2538891 27.4272224 -5.1862793 27.41870117 C-8.13856793 27.41019594 -11.08891833 27.43894956 -14.04101562 27.47070312 C-15.92057234 27.47231541 -17.80013247 27.47173708 -19.6796875 27.46875 C-21.00020363 27.48560097 -21.00020363 27.48560097 -22.34739685 27.50279236 C-26.49495516 27.4557783 -28.66146465 27.32036093 -32.24829102 25.06665039 C-34.5057058 22.66294504 -35.12519699 21.60018359 -35.58984375 18.34765625 C-34.80765854 11.3079894 -30.24676005 6.56948312 -24.9609375 2.19921875 C-17.92839556 -2.74086664 -8.0403239 -2.56938662 0 0 Z " fill="#2184C0" transform="translate(1028.21484375,793.02734375)"/>
<path d="M0 0 C13.2 0 26.4 0 40 0 C41.12500118 11.25001184 41.12500118 11.25001184 39.86010742 15.07910156 C39.58619675 15.93989319 39.31228607 16.80068481 39.03007507 17.68756104 C38.57239494 19.0255777 38.57239494 19.0255777 38.10546875 20.390625 C37.64434441 21.81299469 37.64434441 21.81299469 37.17390442 23.26409912 C36.19626935 26.26559971 35.1924656 29.25755379 34.1875 32.25 C33.52363676 34.27286276 32.86151114 36.29629664 32.20117188 38.3203125 C30.74290475 42.77738923 29.26835358 47.22866355 27.7787323 51.675354 C26.8495093 54.44923988 25.92508909 57.22473273 25 60 C20.38 60 15.76 60 11 60 C12.37118597 54.19955777 14.05726252 48.60767789 16.00390625 42.9765625 C16.28725327 42.14917572 16.57060028 41.32178894 16.86253357 40.46932983 C17.4568439 38.73601603 18.05273604 37.00324385 18.65014648 35.27099609 C19.5666709 32.6129036 20.47806271 29.9530928 21.38867188 27.29296875 C21.96845311 25.60406472 22.54852095 23.91525904 23.12890625 22.2265625 C23.40182999 21.43077789 23.67475372 20.63499329 23.95594788 19.81509399 C25.88349152 14.23301697 25.88349152 14.23301697 27 12 C18.42 12 9.84 12 1 12 C0.67 8.04 0.34 4.08 0 0 Z " fill="#2385C0" transform="translate(1062,757)"/>
<path d="M0 0 C6.46344215 2.84934187 11.17542128 7.82789013 13.921875 14.33984375 C14.80453966 19.28276587 14.30296162 23.34732301 11.796875 27.71484375 C9.29086029 31.22886437 7.13267318 33.04421354 2.921875 34.33984375 C-2.5421449 35.12898008 -6.85318938 34.66132135 -11.51171875 31.61328125 C-15.92162605 28.02816958 -19.66743374 23.50121135 -20.4140625 17.75390625 C-20.49787448 11.76973078 -20.33424893 7.93197746 -16.078125 3.33984375 C-11.02575532 -1.02356643 -6.28315917 -1.99596598 0 0 Z " fill="#2083BF" transform="translate(1017.078125,749.66015625)"/>
<path d="M0 0 C3.125 0.25 3.125 0.25 5.0625 1.4375 C6.125 3.25 6.125 3.25 5.91674805 5.40356445 C4.90197564 9.0518011 3.26667757 12.26729009 1.51953125 15.60546875 C1.15784348 16.30714676 0.7961557 17.00882477 0.42350769 17.73176575 C-0.34271478 19.21504282 -1.11196389 20.69675983 -1.8840332 22.17700195 C-3.04777404 24.40925313 -4.20142006 26.64648611 -5.35351562 28.88476562 C-15.88606681 49.26106681 -15.88606681 49.26106681 -18.875 52.25 C-22.13113615 52.69274485 -23.48820568 52.52498151 -26.19921875 50.59765625 C-26.97910156 49.84355469 -27.75898438 49.08945312 -28.5625 48.3125 C-31.24345487 45.74845895 -33.89433289 43.23390241 -36.74609375 40.859375 C-37.65488281 40.10140625 -38.56367188 39.3434375 -39.5 38.5625 C-40.33789062 37.87800781 -41.17578125 37.19351563 -42.0390625 36.48828125 C-43.875 34.25 -43.875 34.25 -44.2109375 31.04296875 C-43.875 28.25 -43.875 28.25 -42.875 27.25 C-40.203125 26.84765625 -40.203125 26.84765625 -36.875 27.25 C-34.54498564 29.00910288 -32.64994849 30.63456855 -30.625 32.6875 C-27.06897377 36.39460125 -27.06897377 36.39460125 -22.875 39.25 C-22.62500244 38.58323242 -22.37500488 37.91646484 -22.11743164 37.22949219 C-20.59554002 33.57982322 -18.81131002 30.08751761 -16.99609375 26.578125 C-16.62396255 25.85510193 -16.25183136 25.13207886 -15.86842346 24.387146 C-15.08534478 22.86706477 -14.30113857 21.34756393 -13.51586914 19.82861328 C-12.31014134 17.49543582 -11.10893537 15.15997031 -9.90820312 12.82421875 C-9.14610111 11.34621606 -8.38374043 9.86834671 -7.62109375 8.390625 C-7.2606749 7.68963684 -6.90025604 6.98864868 -6.52891541 6.26641846 C-3.43789521 0.29894741 -3.43789521 0.29894741 0 0 Z " fill="#88C2EE" transform="translate(373.875,844.75)"/>
<path d="M0 0 C3.91260733 2.40091813 5.8603576 4.54503427 7 9 C7.51708218 14.99815328 7.51708218 14.99815328 6 17.9375 C2.76931152 19.65380326 -0.48208188 19.65960965 -4 19 C-6.43119623 17.12984906 -7.64069173 15.71861655 -9 13 C-9.14640501 11.35857459 -9.22096589 9.7101859 -9.25 8.0625 C-9.27578125 7.18722656 -9.3015625 6.31195312 -9.328125 5.41015625 C-9 3 -9 3 -7.6640625 1.2109375 C-5.03091072 -0.70520581 -3.1652959 -0.44314143 0 0 Z " fill="#F8FBFD" transform="translate(1134,766)"/>
<path d="M0 0 C1.98 0 3.96 0 6 0 C9 5.625 9 5.625 9 9 C7.49704815 7.69088122 5.99770689 6.37761608 4.5 5.0625 C3.6646875 4.33160156 2.829375 3.60070312 1.96875 2.84765625 C1.3190625 2.23792969 0.669375 1.62820313 0 1 C0 0.67 0 0.34 0 0 Z " fill="#92C4E4" transform="translate(558,824)"/>
</svg>
